# WaveFront *.obj file (generated by CINEMA 4D)

mtllib ./Snitch.mtl

v 1.54092001914978 -0.90370100736618 3.08197999000549
v -0.00006863770250 -0.01401139982045 3.55875992774963
v 1.77930998802185 -0.01401139982045 3.08197999000549
v 0.88961797952652 -1.55499994754791 3.08197999000549
v -0.00006865140313 -1.79339003562927 3.08197999000549
v -0.88975501060486 -1.55499994754791 3.08197999000549
v -1.54105997085571 -0.90370100736618 3.08197999000549
v -1.77945005893707 -0.01401139982045 3.08197999000549
v -1.54105997085571 0.87567800283432 3.08197999000549
v -0.88975501060486 1.52698004245758 3.08197999000549
v -0.00006865910109 1.76537001132965 3.08197999000549
v 0.88961797952652 1.52698004245758 3.08197999000549
v 1.54092001914978 0.87567800283432 3.08197999000549
v 2.66899991035461 -1.55499994754791 -1.77937996387482
v 3.55869007110596 -0.01401139982045 -0.00000005969150
v 3.08190989494324 -0.01401139982045 -1.77937996387482
v 3.08190989494324 -1.79339003562927 0.00000000247039
v 3.08190989494324 -0.01401139982045 1.77937996387482
v 2.66899991035461 -1.55499994754791 1.77937996387482
v 2.66899991035461 1.52698004245758 1.77937996387482
v 3.08190989494324 1.76537001132965 -0.00000000672113
v 2.66899991035461 1.52698004245758 -1.77937996387482
v 1.77930998802185 3.06796002388000 -0.00000004878230
v 1.54092001914978 2.65506005287170 1.77937996387482
v -0.00006870100333 3.06796002388000 1.77937996387482
v -0.00006864010356 3.54474997520447 0.00000001986980
v -1.77945005893707 3.06796002388000 0.00000002813320
v -0.00006863770250 3.06796002388000 -1.77937996387482
v 1.54092001914978 2.65506005287170 -1.77937996387482
v 1.54092001914978 0.87567800283432 -3.08197999000549
v 0.88961797952652 1.52698004245758 -3.08197999000549
v -0.00006867269985 1.76537001132965 -3.08197999000549
v -1.54105997085571 2.65506005287170 -1.77937996387482
v -3.08204007148743 1.76537001132965 -0.00000001706290
v -1.54105997085571 2.65506005287170 1.77937996387482
v -2.66914010047913 1.52698004245758 1.77937996387482
v -3.55883002281189 -0.01401130016893 -0.00000001704990
v -2.66914010047913 1.52698004245758 -1.77937996387482
v -0.88975501060486 1.52698004245758 -3.08197999000549
v -1.54105997085571 0.87567800283432 -3.08197999000549
v -3.08204007148743 -0.01401139982045 -1.77937996387482
v -3.08204007148743 -1.79339003562927 -0.00000001564540
v -2.66914010047913 -1.55499994754791 -1.77937996387482
v -1.77945005893707 -0.01401139982045 -3.08197999000549
v -1.54105997085571 -0.90370100736618 -3.08197999000549
v 1.54092001914978 -0.90370100736618 -3.08197999000549
v 1.77930998802185 -0.01401139982045 -3.08197999000549
v -3.08204007148743 -0.01401139982045 1.77937996387482
v -2.66914010047913 -1.55499994754791 1.77937996387482
v -1.54105997085571 -2.68307995796204 -1.77937996387482
v -0.88975501060486 -1.55499994754791 -3.08197999000549
v -0.00006865689647 -1.79339003562927 -3.08197999000549
v -0.00006865910109 -3.09598994255066 -1.77937996387482
v 1.54092001914978 -2.68307995796204 -1.77937996387482
v 0.88961797952652 -1.55499994754791 -3.08197999000549
v 1.77930998802185 -3.09597992897034 -0.00000002027830
v -0.00006863340241 -3.57277011871338 -0.00000004402500
v -1.77945005893707 -3.09597992897034 -0.00000000573739
v -1.54105997085571 -2.68307995796204 1.77937996387482
v -0.00006864529860 -3.09598994255066 1.77937996387482
v 1.54092001914978 -2.68307995796204 1.77937996387482
v 2.44208002090454 1.23442995548248 1.76054000854492
v 2.64497995376587 0.95990800857544 2.57140994071960
v 1.93446004390717 1.23442995548248 2.42421007156372
v 2.77188992500305 0.95990800857544 2.40548992156982
v 2.77188992500305 0.77689498662949 2.40548992156982
v 2.64497995376587 0.77689498662949 2.57140994071960
v 1.93446004390717 0.50237500667572 2.42421007156372
v 2.44208002090454 0.50237500667572 1.76054000854492
v -2.77188992500305 0.77689498662949 2.40548992156982
v -2.44208002090454 1.23442995548248 1.76054000854492
v -2.77188992500305 0.95990800857544 2.40548992156982
v -2.44208002090454 0.50237500667572 1.76054000854492
v -1.93446004390717 0.50237500667572 2.42421007156372
v -2.64497995376587 0.77689498662949 2.57140994071960
v -2.64497995376587 0.95990800857544 2.57140994071960
v -1.93446004390717 1.23442995548248 2.42421007156372
# 77 vertices

vn 0.25881782174110 0.00000000000000 0.96592617034912
vn 0.00000000000000 0.00000000000000 1.00000000000000
vn 0.22413027286530 -0.12940929830074 0.96592903137207
vn 0.12940929830074 -0.22413027286530 0.96592903137207
vn 0.00000000000000 -0.25881782174110 0.96592617034912
vn -0.12940929830074 -0.22413027286530 0.96592903137207
vn -0.22413027286530 -0.12940929830074 0.96592903137207
vn -0.25881782174110 0.00000000000000 0.96592617034912
vn -0.22413027286530 0.12940929830074 0.96592903137207
vn -0.12940929830074 0.22413027286530 0.96592903137207
vn 0.00000000000000 0.25881782174110 0.96592617034912
vn 0.12940929830074 0.22413027286530 0.96592903137207
vn 0.22413027286530 0.12940929830074 0.96592903137207
vn 0.86498636007309 0.01137523166835 -0.50166648626328
vn 1.00000000000000 0.00000000000000 0.00000000000000
vn 0.88073652982712 -0.23597352206707 -0.41063329577446
vn 0.96235620975494 -0.25784707069397 0.08593861013651
vn 0.86498636007309 -0.01137523166835 0.50166648626328
vn 0.79820525646210 -0.21387974917889 0.56313747167587
vn 0.70570069551468 -0.06303243339062 0.70570069551468
vn 0.69474971294403 -0.18613331019878 0.69474971294403
vn 0.64267069101334 0.29825672507286 0.70570337772369
vn 0.75480419397354 0.42260658740997 0.50167149305344
vn 0.86601907014847 0.50001096725464 0.00000000000000
vn 0.74339973926544 0.44235846400261 -0.50167298316956
vn 0.49998754262924 0.86603260040283 0.00000000000000
vn 0.44235846400261 0.74339973926544 0.50167298316956
vn 0.40741851925850 0.57964241504669 0.70570874214172
vn 0.00000000000000 0.70710676908493 0.70710676908493
vn 0.00000000000000 0.90634196996689 0.42254498600960
vn 0.05340724810958 0.99714356660843 -0.05340724810958
vn -0.42097356915474 0.90707290172577 0.00000000000000
vn -0.05312623828650 0.88942700624466 -0.45397934317589
vn 0.38947820663452 0.75042444467545 -0.53401297330856
vn 0.57964241504669 0.40741851925850 -0.70570874214172
vn 0.35354349017143 0.61236494779587 -0.70711821317673
vn 0.00000000000000 0.70710676908493 -0.70710676908493
vn -0.44235846400261 0.74339973926544 -0.50167298316956
vn -0.81811898946762 0.57504898309708 0.00000000000000
vn -0.44235846400261 0.74339973926544 0.50167298316956
vn -0.40741851925850 0.57964241504669 0.70570874214172
vn -0.75480419397354 0.42260658740997 0.50167149305344
vn -0.99603718519211 0.08893802762032 0.00000000000000
vn -0.75480419397354 0.42260658740997 -0.50167149305344
vn -0.40741851925850 0.57964241504669 -0.70570874214172
vn -0.64267069101334 0.29825672507286 -0.70570337772369
vn -0.86498636007309 -0.01137523166835 -0.50166648626328
vn -0.96592617034912 -0.25881782174110 0.00000000000000
vn -0.79821056127548 -0.21384993195534 -0.56314128637314
vn -0.70570206642151 -0.06300129741430 -0.70570206642151
vn -0.69474971294403 -0.18613331019878 -0.69474971294403
vn 0.69474571943283 -0.18616347014904 -0.69474571943283
vn 0.70570206642151 0.06300129741430 -0.70570206642151
vn -0.86498636007309 -0.01137523166835 0.50166648626328
vn -0.64267069101334 0.29825672507286 0.70570337772369
vn -0.70570206642151 -0.06300129741430 0.70570206642151
vn -0.79821056127548 -0.21384993195534 0.56314128637314
vn -0.69474971294403 -0.18613331019878 0.69474971294403
vn -0.64474719762802 -0.64474719762802 -0.41061186790466
vn -0.50858646631241 -0.50858646631241 -0.69475150108337
vn -0.38947820663452 -0.75042444467545 -0.53401297330856
vn -0.35354349017143 -0.61236494779587 -0.70711821317673
vn 0.00000000000000 -0.70710676908493 -0.70710676908493
vn 0.05312623828650 -0.88942700624466 -0.45397934317589
vn 0.44235846400261 -0.74339973926544 -0.50167298316956
vn 0.40741851925850 -0.57964241504669 -0.70570874214172
vn 0.58432650566101 -0.58432650566101 -0.56313854455948
vn 0.50858646631241 -0.50858646631241 -0.69475150108337
vn 0.70449072122574 -0.70449072122574 -0.08594018220901
vn 0.50001096725464 -0.86601907014847 0.00000000000000
vn -0.03821901604533 -0.99853825569153 0.03821901604533
vn -0.57504898309708 -0.81811898946762 0.00000000000000
vn -0.70710676908493 -0.70710676908493 0.00000000000000
vn -0.64474719762802 -0.64474719762802 0.41061186790466
vn -0.38947820663452 -0.75042444467545 0.53401297330856
vn 0.00000000000000 -0.86504447460175 0.50169515609741
vn 0.00000000000000 -0.70710676908493 0.70710676908493
vn -0.35354349017143 -0.61236494779587 0.70711821317673
vn -0.50858646631241 -0.50858646631241 0.69475150108337
vn 0.64473891258240 -0.64473891258240 0.41063785552979
vn 0.38947820663452 -0.75042444467545 0.53401297330856
vn 0.35354349017143 -0.61236494779587 0.70711821317673
vn 0.50858646631241 -0.50858646631241 0.69475150108337
vn 0.06847121566534 0.60327172279358 0.79459106922150
vn 0.40291947126389 0.41326358914375 0.81662052869797
vn 0.78416389226913 0.60359966754913 -0.14406390488148
vn 0.89369922876358 0.41363042593002 0.17381477355957
vn 0.89369922876358 -0.41363042593002 0.17381477355957
vn 0.40290918946266 -0.41325300931931 0.81663095951080
vn 0.06844010949135 -0.60327297449112 0.79459273815155
vn 0.78416389226913 -0.60359966754913 -0.14406390488148
vn -0.89369922876358 0.41363042593002 0.17381477355957
vn -0.78416389226913 0.60359966754913 -0.14406390488148
vn -0.89369922876358 -0.41363042593002 0.17381477355957
vn -0.78416389226913 -0.60359966754913 -0.14406390488148
vn -0.06844010949135 -0.60327297449112 0.79459273815155
vn -0.40290918946266 -0.41325300931931 0.81663095951080
vn -0.40291947126389 0.41326358914375 0.81662052869797
vn -0.06847121566534 0.60327172279358 0.79459106922150
# 99 normals

vt 0.39631798863411 0.97583800554276 0.00000000000000
vt 0.39655700325966 0.97583800554276 0.00000000000000
vt 0.39634999632835 0.97571802139282 0.00000000000000
vt 0.00000000000000 1.00000000000000 0.00000000000000
vt 0.39643800258636 0.97563099861145 0.00000000000000
vt 0.39655700325966 0.97559899091721 0.00000000000000
vt 0.39667698740959 0.97563099861145 0.00000000000000
vt 0.39676401019096 0.97571802139282 0.00000000000000
vt 0.39679598808289 0.97583800554276 0.00000000000000
vt 0.39676401019096 0.97595697641373 0.00000000000000
vt 0.39667698740959 0.97604501247406 0.00000000000000
vt 0.39655700325966 0.97607702016830 0.00000000000000
vt 0.39643800258636 0.97604501247406 0.00000000000000
vt 0.39634999632835 0.97595697641373 0.00000000000000
vt 2.49727988243103 -1.75569009780884 0.00000000000000
vt 2.49727988243103 -1.51117992401123 0.00000000000000
vt 2.66970992088318 -1.75569009780884 0.00000000000000
vt 2.66970992088318 -1.51117992401123 0.00000000000000
vt 2.49727988243103 -1.26666975021362 0.00000000000000
vt 2.66970992088318 -1.26666975021362 0.00000000000000
vt 2.49727988243103 -1.03052997589111 0.00000000000000
vt 2.66970992088318 -1.03052997589111 0.00000000000000
vt 2.34120011329651 -1.03052997589111 0.00000000000000
vt 2.34120011329651 -1.26666975021362 0.00000000000000
vt 2.34120011329651 -1.51117992401123 0.00000000000000
vt 2.34120011329651 -1.75569009780884 0.00000000000000
vt 2.16950988769531 -1.51117992401123 0.00000000000000
vt 2.16950988769531 -1.26666975021362 0.00000000000000
vt 2.16950988769531 -1.03052997589111 0.00000000000000
vt 1.99781000614166 -1.03052997589111 0.00000000000000
vt 1.99781000614166 -1.26666975021362 0.00000000000000
vt 1.99781000614166 -1.51117992401123 0.00000000000000
vt 1.99781000614166 -1.75569009780884 0.00000000000000
vt 2.16950988769531 -1.75569009780884 0.00000000000000
vt 2.34120011329651 -1.99182987213135 0.00000000000000
vt 2.16950988769531 -1.99182987213135 0.00000000000000
vt 1.99781000614166 -1.99182987213135 0.00000000000000
vt 2.49727988243103 -1.99182987213135 0.00000000000000
vt 2.66970992088318 -1.99182987213135 0.00000000000000
vt 0.66971397399902 -1.75569009780884 0.00000000000000
vt 0.66971397399902 -1.99182987213135 0.00000000000000
vt 0.84278398752213 -1.75569009780884 0.00000000000000
vt 0.84278398752213 -1.99182987213135 0.00000000000000
vt 0.99886900186539 -1.99182987213135 0.00000000000000
vt 0.99886900186539 -1.75569009780884 0.00000000000000
vt 0.66971397399902 -1.51117992401123 0.00000000000000
vt 0.84278398752213 -1.51117992401123 0.00000000000000
vt 0.99886900186539 -1.51117992401123 0.00000000000000
vt 0.66971397399902 -1.26666975021362 0.00000000000000
vt 0.84278398752213 -1.26666975021362 0.00000000000000
vt 0.99886900186539 -1.26666975021362 0.00000000000000
vt 0.99886900186539 -1.03052997589111 0.00000000000000
vt 0.84278398752213 -1.03052997589111 0.00000000000000
vt 0.66971397399902 -1.03052997589111 0.00000000000000
vt 0.32221999764442 0.87957197427750 0.00000000000000
vt 0.36025699973106 0.83811199665070 0.00000000000000
vt 0.32221999764442 0.76784598827362 0.00000000000000
vt 0.36025699973106 0.81018000841141 0.00000000000000
vt 0.38561499118805 0.81018000841141 0.00000000000000
vt 0.38561499118805 0.83811199665070 0.00000000000000
vt 0.42365100979805 0.87957197427750 0.00000000000000
vt 0.42365100979805 0.76784598827362 0.00000000000000
# 62 texture coordinates

o material_0
usemtl Mat
f 3/1/1 2/2/2 1/3/3
f 1/3/3 2/2/2 4/5/4
f 4/5/4 2/2/2 5/6/5
f 6/7/6 5/6/5 2/2/2
f 7/8/7 6/7/6 2/2/2
f 8/9/8 7/8/7 2/2/2
f 9/10/9 8/9/8 2/2/2
f 10/11/10 9/10/9 2/2/2
f 11/12/11 10/11/10 2/2/2
f 11/12/11 2/2/2 12/13/12
f 12/13/12 2/2/2 13/14/13
f 13/14/13 2/2/2 3/1/1
f 16/15/14 15/16/15 14/17/16
f 17/18/17 14/17/16 15/16/15
f 15/16/15 18/19/18 17/18/17
f 17/18/17 18/19/18 19/20/19
f 18/19/18 3/21/20 19/20/19
f 19/20/19 3/21/20 1/22/21
f 18/19/18 13/23/22 3/21/20
f 20/24/23 13/23/22 18/19/18
f 15/16/15 20/24/23 18/19/18
f 21/25/24 20/24/23 15/16/15
f 15/16/15 16/15/14 21/25/24
f 22/26/25 21/25/24 16/15/14
f 21/25/24 22/26/25 23/27/26
f 23/27/26 24/28/27 21/25/24
f 21/25/24 24/28/27 20/24/23
f 24/28/27 12/29/28 20/24/23
f 20/24/23 12/29/28 13/23/22
f 24/28/27 11/30/29 12/29/28
f 25/31/30 11/30/29 24/28/27
f 23/27/26 25/31/30 24/28/27
f 26/32/31 25/31/30 23/27/26
f 26/32/31 27/27/32 25/31/30
f 26/32/31 28/33/33 27/27/32
f 28/33/33 26/32/31 29/34/34
f 23/27/26 29/34/34 26/32/31
f 29/34/34 23/27/26 22/26/25
f 22/26/25 30/35/35 29/34/34
f 31/36/36 29/34/34 30/35/35
f 32/37/37 29/34/34 31/36/36
f 28/33/33 29/34/34 32/37/37
f 28/33/33 32/37/37 33/34/38
f 28/33/33 33/34/38 27/27/32
f 27/27/32 33/34/38 34/25/39
f 27/27/32 34/25/39 35/28/40
f 25/31/30 27/27/32 35/28/40
f 25/31/30 35/28/40 11/30/29
f 11/30/29 35/28/40 10/29/41
f 35/28/40 36/24/42 10/29/41
f 35/28/40 34/25/39 36/24/42
f 34/25/39 37/16/43 36/24/42
f 34/25/39 38/26/44 37/16/43
f 33/34/38 38/26/44 34/25/39
f 33/34/38 39/36/45 38/26/44
f 32/37/37 39/36/45 33/34/38
f 39/36/45 40/35/46 38/26/44
f 38/26/44 40/35/46 41/15/47
f 38/26/44 41/15/47 37/16/43
f 37/16/43 41/15/47 42/18/48
f 41/15/47 43/17/49 42/18/48
f 41/15/47 44/38/50 43/17/49
f 40/35/46 44/38/50 41/15/47
f 44/38/50 45/39/51 43/17/49
f 14/17/16 46/39/52 16/15/14
f 47/38/53 16/15/14 46/39/52
f 16/15/14 47/38/53 22/26/25
f 30/35/35 22/26/25 47/38/53
f 37/16/43 42/18/48 48/19/54
f 36/24/42 37/16/43 48/19/54
f 36/24/42 48/19/54 9/23/55
f 10/29/41 36/24/42 9/23/55
f 9/23/55 48/19/54 8/21/56
f 48/19/54 49/20/57 8/21/56
f 48/19/54 42/18/48 49/20/57
f 8/21/56 49/20/57 7/22/58
f 43/40/59 45/41/60 50/42/61
f 45/41/60 51/43/62 50/42/61
f 51/43/62 52/44/63 50/42/61
f 53/45/64 50/42/61 52/44/63
f 53/45/64 52/44/63 54/42/65
f 55/43/66 54/42/65 52/44/63
f 54/42/65 55/43/66 14/40/67
f 46/41/68 14/40/67 55/43/66
f 14/40/67 17/46/69 54/42/65
f 56/47/70 54/42/65 17/46/69
f 54/42/65 56/47/70 53/45/64
f 57/48/71 53/45/64 56/47/70
f 50/42/61 53/45/64 57/48/71
f 58/47/72 50/42/61 57/48/71
f 43/40/59 50/42/61 58/47/72
f 42/46/73 43/40/59 58/47/72
f 42/46/73 58/47/72 49/49/74
f 49/49/74 58/47/72 59/50/75
f 58/47/72 57/48/71 59/50/75
f 59/50/75 57/48/71 60/51/76
f 60/51/76 5/52/77 59/50/75
f 59/50/75 5/52/77 6/53/78
f 7/54/79 59/50/75 6/53/78
f 49/49/74 59/50/75 7/54/79
f 17/46/69 19/49/80 56/47/70
f 56/47/70 19/49/80 61/50/81
f 56/47/70 61/50/81 57/48/71
f 57/48/71 61/50/81 60/51/76
f 60/51/76 61/50/81 5/52/77
f 61/50/81 4/53/82 5/52/77
f 61/50/81 1/54/83 4/53/82
f 19/49/80 1/54/83 61/50/81
f 64/55/84 63/56/85 62/57/86
f 65/58/87 62/57/86 63/56/85
f 65/58/87 66/59/88 62/57/86
f 63/56/85 66/59/88 65/58/87
f 67/60/89 66/59/88 63/56/85
f 67/60/89 63/56/85 68/61/90
f 64/55/84 68/61/90 63/56/85
f 67/60/89 68/61/90 66/59/88
f 68/61/90 69/62/91 66/59/88
f 62/57/86 66/59/88 69/62/91
f 72/58/92 71/57/93 70/59/94
f 71/57/93 73/62/95 70/59/94
f 74/61/96 70/59/94 73/62/95
f 75/60/97 70/59/94 74/61/96
f 75/60/97 76/56/98 70/59/94
f 76/56/98 72/58/92 70/59/94
f 72/58/92 76/56/98 71/57/93
f 77/55/99 71/57/93 76/56/98
f 77/55/99 76/56/98 74/61/96
f 75/60/97 74/61/96 76/56/98

v -0.00006865779869 -0.01401139982045 -3.55875992774963
# 1 vertex

vn 0.12940929830074 -0.22413027286530 -0.96592903137207
vn 0.00000000000000 0.00000000000000 -1.00000000000000
vn 0.22413027286530 -0.12940929830074 -0.96592903137207
vn 0.00000000000000 -0.25881782174110 -0.96592617034912
vn -0.12940929830074 -0.22413027286530 -0.96592903137207
vn -0.22413027286530 -0.12940929830074 -0.96592903137207
vn -0.25881782174110 0.00000000000000 -0.96592617034912
vn -0.22413027286530 0.12940929830074 -0.96592903137207
vn -0.12940929830074 0.22413027286530 -0.96592903137207
vn 0.00000000000000 0.25881782174110 -0.96592617034912
vn 0.12940929830074 0.22413027286530 -0.96592903137207
vn 0.22413027286530 0.12940929830074 -0.96592903137207
vn 0.25881782174110 0.00000000000000 -0.96592617034912
# 13 normals

vt 0.46278700232506 0.89040201902390 0.00000000000000
vt 0.00012346000585 0.50000000000000 0.00000000000000
vt 0.80855000019073 0.74091500043869 0.00000000000000
vt 0.00012346000585 0.95079702138901 0.00000000000000
vt 1.01338005065918 0.50000000000000 0.00000000000000
vt 0.89647597074509 0.27460098266602 0.00000000000000
vt 0.56364399194717 0.10959804058075 0.00000000000000
vt 0.00012346000585 0.04920268058777 0.00000000000000
# 8 texture coordinates

o material_1
usemtl Mat_1
f 55/63/100 78/64/101 46/65/102
f 52/66/103 78/64/101 55/63/100
f 52/66/103 51/63/104 78/64/101
f 51/63/104 45/65/105 78/64/101
f 45/65/105 44/67/106 78/64/101
f 44/67/106 40/68/107 78/64/101
f 40/68/107 39/69/108 78/64/101
f 39/69/108 32/70/109 78/64/101
f 31/69/110 78/64/101 32/70/109
f 30/68/111 78/64/101 31/69/110
f 47/67/112 78/64/101 30/68/111
f 46/65/102 78/64/101 47/67/112

v -2.32920932769775 0.86777615547180 7.22557497024536
v -17.11005020141602 6.44499015808105 -5.31313896179199
v -3.15938472747803 0.86777615547180 -3.61421680450439
v -15.85846614837646 6.44499015808105 11.02907085418701
v 16.16094207763672 5.60179233551025 11.06545543670654
v 2.32566642761230 0.86412668228149 7.22457551956177
v 17.42865371704102 5.60179233551025 -5.27551221847534
v 3.16653990745544 0.86412668228149 -3.61439180374146
# 8 vertices

vn 0.37407085299492 0.92695820331573 -0.02862564101815
vn -0.31772521138191 0.94786298274994 -0.02462550066411
# 2 normals

vt 0.00000000000000 0.00000000000000 0.00000000000000
vt 1.00000000000000 0.00000000000000 0.00000000000000
vt 1.00000000000000 1.00000000000000 0.00000000000000
# 3 texture coordinates

o material_2
usemtl Mat_2
f 81/71/113 80/72/113 79/4/113
f 79/4/113 80/72/113 82/73/113
f 85/72/114 84/4/114 83/73/114
f 86/71/114 84/4/114 85/72/114

